<?xml version="1.0" encoding="UTF-8"?>
<svg width="12px" height="8px" viewBox="0 0 12 8" version="1.1" xmlns="http://www.w3.org/2000/svg" xmlns:xlink="http://www.w3.org/1999/xlink">
    <title>34B16B85-CDC7-4D1F-86E3-585BF7822253</title>
    <g id="Kits-&amp;-Configuration" stroke="none" stroke-width="1" fill="none" fill-rule="evenodd">
        <g id="Nos-Kits---Configuration-kit---Prototype---3-#modal" transform="translate(-458.000000, -1641.000000)" fill="#112648">
            <g id="modal" transform="translate(120.000000, 1279.000000)">
                <g id="form" transform="translate(36.000000, 31.000000)">
                    <g id="input-group-copy" transform="translate(0.000000, 273.000000)">
                        <g id="chevron-down" transform="translate(302.000000, 58.000000)">
                            <g id="Group" transform="translate(-0.000000, -0.000000)">
                                <path d="M0.292893244,0.792893256 C0.653377205,0.432409295 1.22060826,0.404679759 1.61289947,0.70970465 L1.70710681,0.792893256 L6.00000002,5.085 L10.2928932,0.792893256 C10.6533772,0.432409295 11.2206083,0.404679759 11.6128995,0.70970465 L11.7071068,0.792893256 C12.0675908,1.15337722 12.0953203,1.72060827 11.7902954,2.11289948 L11.7071068,2.20710682 L6.70710681,7.20710682 C6.34662284,7.56759078 5.77939179,7.59532032 5.38710058,7.29029543 L5.29289324,7.20710682 L0.292893244,2.20710682 C-0.0976310479,1.81658253 -0.0976310479,1.18341755 0.292893244,0.792893256 Z" id="Path"></path>
                            </g>
                        </g>
                    </g>
                </g>
            </g>
        </g>
    </g>
</svg>